<?xml version="1.0" encoding="UTF-8" standalone="no"?>

<svg width="47.237991mm" height="47.237991mm" viewBox="0 0 47.23799 47.23799" version="1.1" id="svg5"
  xml:space="preserve" xmlns="http://www.w3.org/2000/svg" xmlns:svg="http://www.w3.org/2000/svg">
  <defs id="defs2" />
  <g id="layer1" transform="translate(-75.797629,-45.272475)">
    <g id="g3" transform="translate(63.223844,-1.6904531e-5)">
      <path
        d="M 28.357634,80.27923 24.561721,92.510506 H 18.559636 L 33.808176,45.272475 H 38.83695 L 53.825941,92.510506 H 47.856299 L 44.125274,80.27923 42.535532,75.055794 36.306341,54.551374 29.97982,75.055794 Z"
        style="font-size:66.4447px;font-family:'Roboto Mono';-inkscape-font-specification:'Roboto Mono';text-align:center;text-anchor:middle;fill:#a9a9a9;stroke:none;stroke-width:5.53963;stroke-linecap:round;stroke-miterlimit:10"
        id="path2" />
      <path id="path3" style="fill:#7e7e7e;stroke-width:0.485128"
        d="m 48.117476,70.587423 c -0.02286,-8.6e-5 -0.04625,6.81e-4 -0.06976,0.0026 -0.384132,0.03109 -0.758199,0.08846 -1.125512,0.163297 -0.80089,0.163167 -1.564784,0.420677 -2.299602,0.748792 -0.941221,0.420281 -1.835102,0.952499 -2.701644,1.531689 -0.778101,0.520077 -1.534535,1.078118 -2.281514,1.630908 l -11.398271,5.989815 -7.050215,3.704684 -2.054655,1.079521 1.986442,-0.868164 6.82904,-2.983798 12.392525,-5.415173 c 0.765291,-0.233115 1.549135,-0.445207 2.325957,-0.672827 L 42.535391,75.0559 42.358658,74.475057 c -0.138354,-0.01361 -0.232864,-0.05419 -0.267167,-0.126608 -0.0408,-0.08645 0.006,-0.208256 0.121956,-0.35295 0.323547,-0.40381 1.196175,-0.988225 2.291333,-1.500683 1.17001,-0.547386 2.240022,-0.847284 2.719214,-0.791166 0.130254,0.01525 0.219592,0.05529 0.252181,0.125573 0.03819,0.08265 -0.0019,0.197404 -0.106454,0.333313 l 0.319878,1.009758 c 0.381821,-0.315244 0.738667,-0.670347 1.063501,-1.07487 0.457813,-0.570165 0.07288,-1.507315 -0.635621,-1.509985 z" />
    </g>
  </g>
</svg>